

	<svg xmlns="http://www.w3.org/2000/svg" xmlns:xlink="http://www.w3.org/1999/xlink" version="1.1" width="128" height="128" viewBox="0 0 100 100">


		<defs>
			<g id="background">
<path fill="url(#background-gradient)" stroke="none" d=" M 90.75 23.05 Q 89.5 23.05 88.85 24.15 88.15 25.25 88.85 26.35 97.25 40.2 95.15 56.15 93.05 71.65 81.75 82.6 70.35 93.7 54.9 95.25 32.95 97.55 17.6 81.85 2.2 66.2 4.85 44.2 6.6 30.2 16.15 19.7 25.65 9.1 39.25 5.8 50.55 3 61.7 5.95 62.85 6.3 63.7 5.65 64.6 5 64.6 3.85 64.6 2.25 62.95 1.7 52.55 -1.1 41.6 0.65 25.55 3.3 14.4 14.85 3.1 26.25 0.65 42.4 -2.95 66.9 14 84.5 30.85 102.1 55.2 99.7 72.6 97.9 85.2 85.4 97.95 72.8 99.7 55.35 101.45 38.55 92.75 24.05 92.05 23.05 90.75 23.05 Z"/>
</g><mask id="mask">
<path fill="#FFFFFF" stroke="none" d=" M 82.2 82.15 Q 95.5 68.85 95.5 49.95 95.5 31.1 82.2 17.8 68.85 4.5 50 4.5 31.15 4.5 17.8 17.8 4.5 31.1 4.5 49.95 4.5 68.85 17.8 82.15 31.15 95.45 50 95.45 68.85 95.45 82.2 82.15 Z"/>
</mask>
			
	<linearGradient id="background-gradient" x1="0" y1="0" y2="1" x2="0" >
		<stop stop-color="#ff0000" offset="0%"/>
		<stop stop-color="#df5600" offset="100%"/>
	</linearGradient>

			
			
			<g transform="scale(0.4036033372901684) translate(-12.115997314453125 -12.103987693786621)" id="picture">
            
    <path fill="#f00000" d="M231.958 59.502c-39.617 32.456-67.688 57.222-84.122 73.886-14.127 14.09-22.25 24.596-23.722 31.21l-13.433 60.358c-1.012 4.547-2.765 7.227-6.09 9.172-3.788 1.426-6.283 2.238-8.13 2.744-2.127-.841-3.7-1.576-4.717-2.203-5.086-3.137-6.755-8.633-5.007-16.487l13.802-62.012c2.392-10.748-15.582-54.743-54.476-132.092l4.979-11.974 8.32 1.604c8.79 9.888 17.306 23.603 25.64 40.732 5.836 12.766 11.209 25.013 17.136 37.366 6.111 11.526 13.327 18.092 21.092 19.59 8.874 1.711 19.036-2.365 31.504-11.601 11.45-9.864 22.438-20.248 33.888-30.112 14.405-12.743 27.151-20.632 38.331-24.08l8.32 1.604-2.76 12.402-.555-.107z"/>
</g>
			
		</defs>

		

			<use xlink:href="#background" fill="url(#background-gradient)" />

		

			<g mask="url(#mask)">
				<g transform="
				        translate(
                                50 50
)
                            translate(0 0)  scale(1.5)  
                            translate(
                                -36 -50
)">
						<use xlink:href="#picture"   />
				</g>
			</g>

		



	</svg>
